<svg xmlns="http://www.w3.org/2000/svg" xmlns:xlink="http://www.w3.org/1999/xlink" viewBox="0 0 1080 1080"><defs><style>.cls-1{fill:none;}.cls-2{clip-path:url(#clip-path);}.cls-3{fill:#f5eaeb;}.cls-3,.cls-5,.cls-6{stroke:#1e1c57;stroke-width:16px;}.cls-3,.cls-5{stroke-miterlimit:10;}.cls-4{clip-path:url(#clip-path-2);}.cls-5,.cls-6{fill:#c7c4e2;}.cls-6{stroke-linecap:round;stroke-linejoin:round;}</style><clipPath id="clip-path"><rect class="cls-1" x="284.6" y="306.94" width="255.4" height="615.99"/></clipPath><clipPath id="clip-path-2"><rect class="cls-1" x="540" y="306.94" width="255.4" height="615.99"/></clipPath></defs><g id="Layer_4" data-name="Layer 4"><g class="cls-2"><path class="cls-3" d="M541.94,314.93h0c-110.25,6.73-181.13,66.87-242,302-41.1,158.78,97.3,298,242,298"/></g><g class="cls-4"><path class="cls-3" d="M538.06,314.93h0c110.25,6.73,181.13,66.87,242,302,41.1,158.78-97.3,298-242,298"/></g></g><g id="Layer_3" data-name="Layer 3"><g id="Layer_2" data-name="Layer 2"><path class="cls-5" d="M757.1,789.14C610,1001.93,426.45,882.57,426.45,882.57s21.16-91.33,134.44-91.33S708.77,740,734.73,679.17,767.08,593.49,763.17,560c-1.38-11.78,3.41,9.36,19.1,70.22C793.21,672.65,783.46,751,757.1,789.14Z"/><path class="cls-6" d="M303.3,732.91s47.06-128.16,150.12-140.24,75.44-81.45,53.3-106.64C464,437.4,500.15,357.36,491.14,328.52c-1.91-6.12-133.84,13.21-195.79,317.66-.82,4-3.33,34.72-.64,55.39S303.3,732.91,303.3,732.91Z"/></g></g></svg>