<svg xmlns="http://www.w3.org/2000/svg" viewBox="0 0 1080 1080"><defs><style>.cls-1,.cls-7{fill:none;}.cls-2{fill:#f6afce;}.cls-3{fill:#a0ddf9;stroke-linejoin:round;}.cls-3,.cls-4,.cls-6{stroke:#231f20;stroke-width:16px;}.cls-3,.cls-6,.cls-7{stroke-linecap:round;}.cls-4,.cls-6{fill:#231f20;}.cls-4,.cls-6,.cls-7{stroke-miterlimit:10;}.cls-5{fill:#e394af;}.cls-7{stroke:#fff;stroke-width:19px;}</style></defs><g id="Background_Transparent"><rect class="cls-1" width="1080" height="1080"/></g><g id="_08_Pink_BG" data-name="08_Pink_BG"><rect class="cls-2" width="1080" height="1080"/></g><g id="_01_LongNeck_Blue_Body" data-name="01_LongNeck_Blue_Body"><path class="cls-3" d="M230.3,1080l-36-540S178.64,379.42,301.75,281.13c88.47-70.65,224.46-61.3,294-50.45A276.82,276.82,0,0,1,683.63,260c61.86,33.11,162.64,92.93,177,216.37C876,608.06,748.12,693.85,748.12,693.85l7,386.15"/></g><g id="Mouth2"><path class="cls-4" d="M630.23,529.62s-20.83-57.9,62.82-48.8c5.39.58,23.1-1.35,27.05-2.57A200.17,200.17,0,0,0,751,464.1c9.84-5.7,46-2.66,46,36.79,0,30.28-16.85,40.88-38.64,54-15.5,9.29-32.77,12.24-35.74,12.62C647.85,577.14,630.23,529.62,630.23,529.62Z"/><path class="cls-5" d="M640.42,531.23c.68,3.1,2.54,5.67,4.41,8.24,7.88,10.88,28.95,26.86,63.83,23.67,43.2-3.94,29.51-31.16,22.06-38.61-24.56-24.56-82.31-15.77-89.11-4C639.55,524.06,639.73,528.1,640.42,531.23Z"/></g><g id="Eyes3"><ellipse class="cls-6" cx="519.13" cy="452.11" rx="59" ry="58.43"/><path class="cls-7" d="M478.57,473.61c4.37,13.59,28.86,29.5,45.23,25.92"/><path class="cls-7" d="M527.8,407.16s15.43-1.59,24,12.59"/><ellipse class="cls-6" cx="935.13" cy="416.11" rx="59" ry="58.43"/><path class="cls-7" d="M894.57,437.61c4.36,13.59,28.86,29.5,45.22,25.92"/><path class="cls-7" d="M943.79,371.16s15.44-1.59,24,12.59"/></g></svg>